<?xml version="1.0" standalone="no"?>
<!DOCTYPE svg PUBLIC "-//W3C//DTD SVG 20010904//EN" "http://www.w3.org/TR/2001/REC-SVG-20010904/DTD/svg10.dtd">
<svg version="1.0" xmlns="http://www.w3.org/2000/svg" width="512.000000pt" height="512.000000pt"
    viewBox="0 0 512.000000 512.000000" preserveAspectRatio="xMidYMid meet">

    <g transform="translate(0.000000,512.000000) scale(0.100000,-0.100000)" fill="#c91b28" stroke="none">
        <path d="M2026 4951 l-168 -169 -236 79 c-130 44 -238 79 -239 79 -2 0 -3 -90
-3 -199 0 -198 0 -199 -22 -204 -13 -3 -106 -22 -208 -42 -102 -20 -186 -38
-187 -39 -2 -1 23 -67 55 -147 l58 -144 1115 -3 1115 -2 58 145 c32 81 57 148
55 150 -2 1 -87 19 -189 40 -102 20 -193 39 -202 41 -16 5 -18 23 -18 205 0
186 -1 200 -17 195 -10 -3 -117 -39 -238 -80 l-220 -74 -170 169 -170 169
-169 -169z" />
        <path d="M319 4290 c31 -81 67 -134 128 -190 87 -80 196 -120 326 -120 l50 0
-7 30 c-11 56 -56 138 -104 188 -88 92 -205 142 -334 142 l-78 0 19 -50z" />
        <path d="M1020 3890 l0 -90 1175 0 1175 0 0 90 0 90 -1175 0 -1175 0 0 -90z" />
        <path d="M652 3789 c-144 -28 -277 -144 -329 -286 l-23 -63 73 0 c181 0 332
93 412 253 51 101 49 107 -27 106 -35 -1 -82 -5 -106 -10z" />
        <path d="M1110 3576 l0 -43 68 33 c37 18 78 37 92 43 19 7 5 10 -67 10 l-93 1
0 -44z" />
        <path d="M1470 3350 l0 -270 725 0 725 0 0 270 0 270 -725 0 -725 0 0 -270z
m310 75 c56 -29 66 -85 24 -134 -35 -42 -84 -43 -125 -2 -43 44 -33 106 22
137 31 17 44 17 79 -1z m928 -17 c31 -30 30 -91 -3 -123 -55 -56 -145 -16
-145 63 0 80 87 116 148 60z" />
        <path d="M3125 3607 c17 -7 58 -26 93 -44 l62 -32 0 45 0 44 -92 -1 c-81 -1
-89 -3 -63 -12z" />
        <path d="M1245 3402 c-79 -49 -126 -124 -133 -212 -7 -100 27 -176 106 -237
74 -57 72 -64 72 217 0 138 -3 250 -7 250 -5 0 -21 -8 -38 -18z" />
        <path d="M3100 3170 c0 -193 3 -250 13 -250 6 0 32 15 57 34 54 39 99 116 107
184 12 101 -49 217 -138 263 l-39 19 0 -250z" />
        <path d="M4425 3100 l-70 -70 163 -163 162 -162 72 73 73 72 -160 160 c-88 88
-162 160 -165 160 -3 0 -37 -32 -75 -70z" />
        <path d="M1473 2783 c14 -291 162 -513 421 -633 111 -52 173 -65 301 -65 84 1
129 6 190 23 230 66 412 238 491 463 26 75 53 280 41 312 -6 16 -59 17 -728
17 l-722 0 6 -117z" />
        <path d="M4177 2672 l-137 -137 73 -73 72 -72 140 140 140 140 -70 70 c-38 38
-72 70 -75 70 -3 0 -67 -62 -143 -138z" />
        <path d="M3610 2555 l-65 -65 298 -297 297 -298 65 65 c36 35 65 69 65 75 0
13 -572 585 -585 585 -6 0 -40 -29 -75 -65z" />
        <path d="M3332 2007 l-213 -213 253 -72 253 -72 125 125 125 125 -160 160
c-88 88 -162 160 -165 160 -3 0 -101 -96 -218 -213z" />
        <path d="M1742 1933 l3 -87 70 -37 c144 -78 349 -107 533 -75 100 17 216 61
269 102 32 25 33 26 33 105 0 43 -2 79 -4 79 -2 0 -38 -16 -80 -35 -127 -59
-220 -78 -376 -78 -155 0 -245 19 -369 78 -40 19 -75 35 -77 35 -3 0 -3 -39
-2 -87z" />
        <path d="M1256 1604 c-197 -57 -361 -105 -363 -108 -2 -2 15 -32 37 -67 61
-93 143 -269 180 -384 70 -222 90 -389 90 -782 l0 -263 994 0 994 0 5 363 c5
368 9 411 52 577 42 163 112 327 203 476 l50 82 -369 105 -369 105 -54 -31
-55 -32 -1 -385 0 -385 -230 -230 -230 -230 -225 225 -225 225 0 387 0 388
-27 16 c-16 9 -40 25 -55 35 -15 11 -31 19 -35 18 -4 -1 -169 -48 -367 -105z" />
        <path d="M2115 1470 l75 -75 75 75 75 75 -150 0 -150 0 75 -75z" />
        <path d="M675 1411 c-91 -55 -175 -191 -194 -311 -7 -39 -11 -274 -11 -582 l0
-518 275 0 275 0 0 253 c0 271 -11 435 -36 562 -22 109 -77 272 -126 369 -42
85 -139 246 -148 246 -3 0 -18 -8 -35 -19z" />
        <path d="M3622 1353 c-106 -167 -181 -351 -224 -551 -18 -84 -21 -143 -25
-449 l-5 -353 272 0 271 0 -3 573 -3 572 -33 70 c-18 38 -44 84 -58 103 -26
34 -119 112 -134 112 -4 0 -30 -35 -58 -77z" />
        <path d="M1920 1270 l0 -145 72 73 73 72 -73 72 -72 73 0 -145z" />
        <path d="M2387 1332 l-67 -68 70 -69 70 -69 0 137 c0 75 -1 137 -3 137 -1 0
-33 -30 -70 -68z" />
        <path d="M2077 1022 l-117 -117 118 -118 117 -117 113 113 c61 62 112 117 112
122 0 6 -51 61 -113 123 l-112 112 -118 -118z" />
    </g>
</svg>