<?xml version="1.0" standalone="no"?>
<!DOCTYPE svg PUBLIC "-//W3C//DTD SVG 20010904//EN"
 "http://www.w3.org/TR/2001/REC-SVG-20010904/DTD/svg10.dtd">
<svg version="1.0" xmlns="http://www.w3.org/2000/svg"
 width="512.000000pt" height="512.000000pt" viewBox="0 0 512.000000 512.000000"
 preserveAspectRatio="xMidYMid meet">

<g transform="translate(0.000000,512.000000) scale(0.100000,-0.100000)"
fill="#000000" stroke="none">
<path d="M478 4642 c-416 -416 -478 -481 -478 -507 0 -26 108 -138 885 -915
l885 -885 -799 -800 c-869 -869 -824 -818 -806 -912 5 -32 37 -69 213 -245
176 -176 213 -208 245 -213 94 -18 43 -63 912 806 l800 799 885 -885 c777
-777 889 -885 915 -885 26 0 91 62 507 478 416 416 478 481 478 507 0 26 -108
138 -885 915 l-885 885 689 690 689 690 118 358 c113 341 118 359 104 385 -9
14 -28 33 -42 42 -26 14 -44 9 -387 -105 l-360 -119 -688 -688 -688 -688 -885
885 c-777 777 -889 885 -915 885 -26 0 -91 -62 -507 -478z m564 231 l47 -47
-39 -43 c-48 -51 -53 -91 -15 -128 37 -38 77 -33 128 15 l43 39 54 -54 54 -55
-91 -92 c-50 -51 -94 -103 -98 -116 -15 -49 30 -102 87 -102 13 0 58 37 120
97 l99 97 56 -56 57 -57 -43 -46 c-37 -41 -42 -51 -37 -78 14 -73 90 -90 146
-32 19 19 39 35 45 35 6 0 34 -24 63 -53 l52 -53 -95 -94 c-86 -86 -95 -98
-95 -132 0 -47 30 -78 77 -78 29 0 48 13 132 95 l97 94 54 -54 54 -55 -31 -32
c-18 -18 -36 -44 -41 -58 -14 -37 5 -80 41 -95 39 -16 70 -6 115 38 l32 31 55
-54 54 -54 -94 -97 c-82 -84 -95 -103 -95 -132 0 -47 31 -77 78 -77 34 0 46 9
132 95 l94 95 53 -52 c29 -29 53 -57 53 -63 0 -6 -16 -26 -35 -45 -58 -56 -41
-132 32 -146 27 -5 37 0 78 37 l46 43 57 -57 57 -57 -398 -398 -397 -397 -840
840 c-462 462 -840 844 -840 850 0 13 772 785 785 785 5 0 31 -21 57 -47z
m3702 -145 c-9 -31 -11 -33 -29 -18 -20 16 -19 27 3 33 31 8 33 7 26 -15z
m-144 -133 l74 -75 -39 -120 -39 -120 -158 0 -158 0 0 158 0 158 108 36 c59
20 114 37 122 37 9 1 49 -33 90 -74z m-469 -431 c19 -36 53 -44 192 -44 l132
0 -1430 -1430 -1430 -1430 -167 167 -168 168 1427 1427 1428 1428 3 -132 c1
-73 7 -143 13 -154z m-831 -1549 l53 -54 -42 -46 c-37 -41 -42 -51 -37 -78 14
-73 90 -90 146 -32 19 19 39 35 45 35 6 0 34 -24 63 -53 l52 -53 -95 -94 c-86
-86 -95 -98 -95 -132 0 -47 30 -78 77 -78 29 0 48 13 132 95 l97 94 54 -54 54
-55 -31 -32 c-44 -45 -54 -76 -38 -115 15 -36 58 -55 95 -41 14 5 40 23 58 41
l32 31 55 -54 54 -54 -94 -97 c-80 -83 -95 -103 -95 -130 0 -46 34 -79 79 -79
33 0 47 10 131 95 l94 95 53 -52 c29 -29 53 -57 53 -63 0 -6 -16 -26 -35 -45
-58 -56 -41 -132 32 -146 27 -5 37 0 78 37 l46 43 57 -57 56 -56 -97 -99 c-60
-62 -97 -107 -97 -120 0 -57 53 -102 102 -87 13 4 65 48 116 98 l92 91 55 -54
54 -54 -39 -43 c-48 -51 -53 -91 -15 -128 37 -38 77 -33 128 15 l43 39 47 -47
c26 -26 47 -52 47 -57 0 -13 -772 -785 -785 -785 -6 0 -388 378 -850 840
l-840 840 395 395 c217 217 397 395 400 395 3 0 30 -25 60 -55z m-1874 -1524
c-50 -50 -56 -53 -83 -43 -22 7 -38 6 -61 -4 -35 -14 -48 -46 -38 -97 5 -29 1
-38 -47 -85 l-52 -52 -168 168 -167 167 53 53 c47 47 56 52 85 46 49 -10 82 3
96 38 10 23 11 39 4 61 -10 27 -7 32 43 83 l54 54 167 -167 168 -168 -54 -54z
m-583 -583 l-188 -188 -167 167 -168 168 187 187 188 188 167 -167 168 -168
-187 -187z"/>
</g>
</svg>
