<?xml version="1.0" standalone="no"?>
<!DOCTYPE svg PUBLIC "-//W3C//DTD SVG 20010904//EN"
 "http://www.w3.org/TR/2001/REC-SVG-20010904/DTD/svg10.dtd">
<svg version="1.0" xmlns="http://www.w3.org/2000/svg"
 width="512.000000pt" height="512.000000pt" viewBox="0 0 512.000000 512.000000"
 preserveAspectRatio="xMidYMid meet">

<g transform="translate(0.000000,512.000000) scale(0.100000,-0.100000)"
fill="#000000" stroke="none">
<path d="M722 5100 c-95 -25 -173 -70 -243 -139 -70 -71 -114 -148 -139 -247
-20 -76 -20 -115 -20 -2154 0 -2039 0 -2078 20 -2154 50 -196 202 -344 401
-391 96 -22 2182 -22 2278 0 203 48 358 203 406 406 13 56 15 318 15 2139 0
2287 4 2134 -62 2268 -39 78 -131 175 -210 220 -31 18 -91 41 -134 52 -75 19
-112 20 -1158 19 -1033 0 -1084 -1 -1154 -19z m405 -238 c86 -159 109 -192
170 -233 96 -66 118 -69 583 -69 465 0 487 3 583 69 61 41 84 74 171 233 l72
133 144 -1 c125 0 153 -3 200 -22 112 -45 196 -129 242 -242 l23 -55 0 -2115
0 -2115 -23 -55 c-46 -113 -129 -196 -242 -242 l-55 -23 -1115 0 -1115 0 -55
23 c-113 46 -196 129 -242 242 l-23 55 -3 2089 c-2 1860 -1 2096 13 2150 28
108 93 197 187 253 81 49 144 62 288 60 l125 -2 72 -133z m1391 36 c-63 -121
-115 -178 -183 -201 -71 -25 -837 -25 -908 -1 -68 23 -124 84 -185 202 l-53
102 691 0 691 0 -53 -102z"/>
<path d="M745 4141 c-48 -22 -69 -44 -90 -94 -13 -31 -15 -126 -15 -709 0
-632 2 -675 19 -713 22 -48 44 -69 94 -90 32 -13 168 -15 1129 -15 1039 0
1095 1 1133 19 48 22 69 44 90 94 23 55 23 1359 0 1414 -21 50 -42 72 -90 94
-38 18 -94 19 -1135 19 -1041 0 -1097 -1 -1135 -19z m2104 -105 c-2 -2 -221
-143 -486 -314 l-483 -311 -482 311 c-266 171 -485 312 -487 314 -2 2 434 4
969 4 535 0 971 -2 969 -4z m-1554 -391 c253 -162 460 -300 460 -305 0 -5
-207 -143 -460 -305 -253 -163 -477 -307 -497 -321 l-38 -24 0 650 0 650 38
-24 c20 -14 244 -158 497 -321z m1703 -628 l-3 -323 -495 319 c-272 175 -495
322 -495 327 0 5 223 152 495 327 l495 319 3 -323 c1 -178 1 -468 0 -646z
m-630 -62 l481 -310 -484 -3 c-267 -1 -703 -1 -969 0 l-484 3 482 311 c264
172 484 311 487 310 3 0 222 -140 487 -311z"/>
<path d="M712 2340 c-18 -11 -41 -34 -52 -52 -19 -32 -20 -52 -20 -548 0 -496
1 -516 20 -548 11 -18 34 -41 52 -52 32 -20 48 -20 515 -18 469 3 482 4 510
24 64 47 63 37 63 599 0 491 -1 511 -20 543 -11 18 -34 41 -52 52 -32 19 -52
20 -508 20 -456 0 -476 -1 -508 -20z m842 -152 c-28 -29 -113 -120 -190 -203
-76 -82 -141 -150 -144 -150 -3 0 -68 68 -145 150 -76 83 -161 174 -189 203
l-50 52 384 0 384 0 -50 -52z m-570 -281 c80 -87 146 -162 146 -167 0 -8 -219
-249 -331 -365 l-39 -40 0 405 0 405 39 -40 c21 -22 104 -111 185 -198z m694
-368 l-3 -201 -182 197 c-101 108 -183 200 -183 205 0 5 82 97 183 206 l182
197 3 -202 c1 -110 1 -291 0 -402z m-266 -94 l185 -200 -188 -3 c-104 -1 -274
-1 -378 0 l-188 3 186 202 c102 111 189 201 192 200 3 -1 89 -92 191 -202z"/>
<path d="M2032 2340 c-18 -11 -41 -34 -52 -52 -19 -32 -20 -52 -20 -548 0
-496 1 -516 20 -548 11 -18 34 -41 52 -52 32 -20 48 -20 515 -18 469 3 482 4
510 24 64 47 63 37 63 599 0 491 -1 511 -20 543 -11 18 -34 41 -52 52 -32 19
-52 20 -508 20 -456 0 -476 -1 -508 -20z m842 -152 c-28 -29 -113 -120 -190
-203 -76 -82 -141 -150 -144 -150 -3 0 -68 68 -145 150 -76 83 -161 174 -189
203 l-50 52 384 0 384 0 -50 -52z m-570 -281 c80 -87 146 -162 146 -167 0 -8
-219 -249 -331 -365 l-39 -40 0 405 0 405 39 -40 c21 -22 104 -111 185 -198z
m694 -368 l-3 -201 -182 197 c-101 108 -183 200 -183 205 0 5 82 97 183 206
l182 197 3 -202 c1 -110 1 -291 0 -402z m-266 -94 l185 -200 -188 -3 c-104 -1
-274 -1 -378 0 l-188 3 186 202 c102 111 189 201 192 200 3 -1 89 -92 191
-202z"/>
<path d="M1420 620 c-11 -11 -20 -29 -20 -40 0 -11 9 -29 20 -40 19 -19 33
-20 460 -20 427 0 441 1 460 20 25 25 25 55 0 80 -19 19 -33 20 -460 20 -427
0 -441 -1 -460 -20z"/>
<path d="M4125 5108 c-27 -5 -86 -27 -131 -48 -155 -75 -276 -234 -304 -400
-7 -46 -10 -660 -8 -2080 l3 -2015 30 -57 c37 -70 390 -454 443 -482 52 -28
119 -26 169 5 60 36 408 422 441 489 l27 55 3 2010 c2 1416 -1 2029 -8 2075
-6 36 -29 102 -51 147 -109 226 -359 349 -614 301z m207 -119 c119 -26 241
-117 293 -219 27 -53 55 -149 55 -187 l0 -23 -440 0 -440 0 0 23 c0 12 7 49
15 80 61 235 284 375 517 326z m348 -649 l0 -100 -440 0 -440 0 0 100 0 100
440 0 440 0 0 -100z m-740 -1908 l0 -1688 -64 -47 c-35 -26 -67 -47 -70 -47
-3 0 -6 781 -6 1735 l0 1735 70 0 70 0 0 -1688z m480 -1 l0 -1688 -90 -67 -90
-66 -90 67 -90 68 0 1687 0 1688 180 0 180 0 0 -1689z m260 -47 c0 -1385 -3
-1734 -12 -1728 -7 4 -39 26 -70 48 l-58 40 0 1688 0 1688 70 0 70 0 0 -1736z
m-51 -1851 c6 -4 -40 -59 -128 -153 -75 -81 -80 -84 -98 -68 -82 74 -243 74
-327 0 -18 -16 -23 -13 -122 93 -57 60 -104 113 -104 117 0 12 133 107 150
107 8 0 60 -33 115 -74 62 -47 110 -75 125 -75 16 0 66 29 134 79 l108 80 72
-52 c39 -28 73 -52 75 -54z m-309 -309 c18 -19 18 -20 -10 -51 -57 -63 -94
-63 -143 0 -24 32 -25 36 -9 50 26 23 43 27 95 23 31 -2 55 -10 67 -22z"/>
</g>
</svg>
